Coordinates
version=1
nRows=27
nColumns=38
inDegrees=no

Units are S.I. units (second, meters, Newtons, ...)
If the header above contains a line with 'inDegrees', this indicates whether rotational values are in degrees (yes) or radians (no).

endheader
time	pelvis_tilt	pelvis_list	pelvis_rotation	pelvis_tx	pelvis_ty	pelvis_tz	hip_flexion_r	hip_adduction_r	hip_rotation_r	knee_angle_r	ankle_angle_r	subtalar_angle_r	mtp_angle_r	hip_flexion_l	hip_adduction_l	hip_rotation_l	knee_angle_l	ankle_angle_l	subtalar_angle_l	mtp_angle_l	lumbar_extension	lumbar_bending	lumbar_rotation	arm_flex_r	arm_add_r	arm_rot_r	elbow_flex_r	pro_sup_r	wrist_flex_r	wrist_dev_r	arm_flex_l	arm_add_l	arm_rot_l	elbow_flex_l	pro_sup_l	wrist_flex_l	wrist_dev_l
1.58	-0.0123748	0.0286367	0.010675	0.919152	1.02327	-0.326707	-0.203758	-0.024225	-0.381296	-0.45339	0.0964334	0.030798	-0.00305	0.682106	-0.0837828	-0.245809	-1.59462	0.121749	0.0409545	-0.00521385	-0.23081	-0.00377198	0.200087	-0.268755	-0.268488	-0.0418145	2.20797	1.76338	0.00588342	0.0429652	-0.61332	-0.348481	-0.0310602	2.18248	1.60117	0.0355502	0.0102162
1.59	-0.0182638	0.0428175	0.0168645	0.922776	1.02956	-0.327512	-0.257075	-0.0386256	-0.402785	-0.397946	-0.0143256	0.030798	-0.00305	0.697006	-0.0668359	-0.263687	-1.49451	0.118449	0.0409545	-0.00521385	-0.213686	-0.0207591	0.201765	-0.274112	-0.270765	-0.0153165	2.2425	1.77723	0.00588342	0.0429652	-0.649294	-0.333089	-0.0503628	2.20541	1.59396	0.0355502	0.0102162
1.6	-0.0227566	0.0546677	0.0228723	0.926265	1.03559	-0.328366	-0.302807	-0.0520088	-0.426978	-0.358432	-0.117524	0.030798	-0.00305	0.703218	-0.0497829	-0.279423	-1.38506	0.109955	0.0409545	-0.00521385	-0.199071	-0.0353156	0.201647	-0.279667	-0.272544	0.0112671	2.27089	1.78539	0.00588342	0.0429652	-0.683599	-0.315149	-0.0713679	2.22649	1.58823	0.0355502	0.0102162
1.61	-0.0255492	0.0636426	0.0284013	0.929457	1.04119	-0.329208	-0.340228	-0.0642938	-0.452122	-0.338645	-0.205416	0.030798	-0.00305	0.700999	-0.033076	-0.292167	-1.26773	0.095818	0.0409545	-0.00521385	-0.187711	-0.0469566	0.200687	-0.285459	-0.273739	0.0365346	2.29304	1.78797	0.00588342	0.0429652	-0.714761	-0.295547	-0.0928958	2.24521	1.58287	0.0355502	0.0102162
1.62	-0.0264295	0.0695518	0.0332302	0.932249	1.04621	-0.329979	-0.3692	-0.0757429	-0.476603	-0.340974	-0.27212	0.030798	-0.00305	0.690809	-0.0171547	-0.301697	-1.14444	0.076026	0.0409545	-0.00521385	-0.180091	-0.0555711	0.199653	-0.291711	-0.274229	0.0591877	2.30914	1.78584	0.00588342	0.0429652	-0.741571	-0.27527	-0.113787	2.26131	1.57685	0.0355502	0.0102162
1.63	-0.0253198	0.0726475	0.0372802	0.934573	1.05049	-0.330648	-0.390099	-0.0869577	-0.499233	-0.366179	-0.314435	0.030798	-0.00305	0.673355	-0.00226517	-0.308351	-1.01767	0.0510878	0.0409545	-0.00521385	-0.176399	-0.0614879	0.198943	-0.298698	-0.27388	0.0782114	2.31948	1.78044	0.00588342	0.0429652	-0.763207	-0.255274	-0.133087	2.27472	1.56946	0.0355502	0.0102162
1.64	-0.022272	0.0735819	0.0406459	0.936477	1.05397	-0.331197	-0.403656	-0.0987668	-0.519339	-0.413418	-0.332103	0.030798	-0.00305	0.649651	0.0116284	-0.312847	-0.890568	0.0220727	0.0409545	-0.00521385	-0.176524	-0.0654276	0.198567	-0.306696	-0.272555	0.0929208	2.32441	1.77348	0.00588342	0.0429652	-0.779235	-0.236415	-0.150121	2.28552	1.56044	0.0355502	0.0102162
1.65	-0.0174875	0.0732805	0.0435737	0.938026	1.05658	-0.331642	-0.410757	-0.112018	-0.536643	-0.480495	-0.327524	0.030798	-0.00305	0.621026	0.0248108	-0.316032	-0.766844	-0.00944576	0.0409545	-0.00521385	-0.180105	-0.0683409	0.198232	-0.315967	-0.270148	0.102933	2.32428	1.76661	0.00588342	0.0429652	-0.789552	-0.219418	-0.16449	2.29378	1.55012	0.0355502	0.0102162
1.66	-0.0112957	0.0727506	0.0463977	0.939272	1.05825	-0.332016	-0.412241	-0.127358	-0.551003	-0.564299	-0.305037	0.030798	-0.00305	0.589096	0.0376985	-0.318631	-0.650674	-0.041554	0.0409545	-0.00521385	-0.186589	-0.0712034	0.197482	-0.326741	-0.26662	0.108116	2.31948	1.76102	0.00588342	0.0429652	-0.794287	-0.204855	-0.176033	2.29955	1.53929	0.0355502	0.0102162
1.67	-0.00411998	0.0728919	0.0494526	0.940253	1.05892	-0.332362	-0.408721	-0.145069	-0.562189	-0.661302	-0.269975	0.030798	-0.00305	0.555663	0.0506975	-0.321048	-0.546387	-0.072214	0.0409545	-0.00521385	-0.195316	-0.0748282	0.19584	-0.339184	-0.262032	0.108546	2.31044	1.75715	0.00588342	0.0429652	-0.793715	-0.19315	-0.184768	2.30286	1.52907	0.0355502	0.0102162
1.68	0.00356553	0.0743498	0.0530006	0.940989	1.05857	-0.332715	-0.400497	-0.164995	-0.569792	-0.76801	-0.227742	0.030798	-0.00305	0.522571	0.0640931	-0.323219	-0.458093	-0.0994169	0.0409545	-0.00521385	-0.205591	-0.0797295	0.192898	-0.353348	-0.256575	0.104488	2.29764	1.75477	0.00588342	0.0429652	-0.78819	-0.184562	-0.19084	2.30364	1.52065	0.0355502	0.0102162
1.69	0.0112849	0.0774432	0.0571927	0.94148	1.05718	-0.3331	-0.387549	-0.186584	-0.573325	-0.881262	-0.183074	0.030798	-0.00305	0.491527	0.0780086	-0.324573	-0.389287	-0.121206	0.0409545	-0.00521385	-0.216763	-0.0860702	0.188337	-0.369107	-0.250563	0.0963882	2.28154	1.75326	0.00588342	0.0429652	-0.778092	-0.179185	-0.194479	2.30181	1.51498	0.0355502	0.0102162
1.7	0.0186044	0.0821714	0.0620693	0.941708	1.05474	-0.333538	-0.369613	-0.209025	-0.572411	-0.998383	-0.139584	0.030798	-0.00305	0.46395	0.0924207	-0.324128	-0.342524	-0.135591	0.0409545	-0.00521385	-0.22827	-0.0936872	0.181896	-0.386112	-0.24441	0.0848771	2.2626	1.75199	0.00588342	0.0429652	-0.763812	-0.176939	-0.195969	2.29728	1.51265	0.0355502	0.0102162
1.71	0.0251583	0.088292	0.0675777	0.941658	1.05128	-0.33404	-0.346272	-0.231436	-0.566943	-1.1172	-0.0996018	0.030798	-0.00305	0.440875	0.107213	-0.320769	-0.319226	-0.140481	0.0409545	-0.00521385	-0.239657	-0.102188	0.173325	-0.403779	-0.238577	0.0707451	2.24111	1.75056	0.00588342	0.0429652	-0.745729	-0.177585	-0.19561	2.28998	1.51372	0.0355502	0.0102162
1.72	0.0306753	0.0954201	0.0736026	0.941311	1.04678	-0.334609	-0.317059	-0.253022	-0.557143	-1.23596	-0.0642586	0.030798	-0.00305	0.422916	0.122219	-0.313625	-0.319619	-0.133745	0.0409545	-0.00521385	-0.250592	-0.111063	0.162369	-0.421334	-0.233501	0.0548773	2.21728	1.74887	0.00588342	0.0429652	-0.724182	-0.180764	-0.193663	2.27989	1.51771	0.0355502	0.0102162
1.73	0.035002	0.103089	0.08	0.940653	1.04123	-0.335237	-0.281556	-0.273148	-0.543515	-1.35316	-0.0337356	0.030798	-0.00305	0.410237	0.137222	-0.302399	-0.342722	-0.113515	0.0409545	-0.00521385	-0.260889	-0.119763	0.148835	-0.437959	-0.229518	0.0381112	2.19119	1.74715	0.00588342	0.0429652	-0.6994	-0.186079	-0.190239	2.2671	1.52361	0.0355502	0.0102162
1.74	0.0381276	0.110776	0.0866225	0.93966	1.03464	-0.335904	-0.239486	-0.291337	-0.526729	-1.46744	-0.00755966	0.030798	-0.00305	0.402488	0.151909	-0.287512	-0.386304	-0.0786853	0.0409545	-0.00521385	-0.270583	-0.127716	0.132792	-0.453039	-0.226755	0.0209914	2.163	1.74574	0.00588342	0.0429652	-0.671368	-0.193234	-0.185132	2.25183	1.53011	0.0355502	0.0102162
1.75	0.0400999	0.117968	0.093356	0.938239	1.02724	-0.336554	-0.190719	-0.307242	-0.507556	-1.57733	0.0150957	0.030798	-0.00305	0.398772	0.16587	-0.269987	-0.446733	-0.0295459	0.0409545	-0.00521385	-0.27975	-0.134403	0.114323	-0.466019	-0.225207	0.00401599	2.1328	1.74493	0.00588342	0.0429652	-0.640024	-0.201907	-0.178058	2.23447	1.5358	0.0355502	0.0102162
1.76	0.0410163	0.124159	0.100134	0.936339	1.01943	-0.337125	-0.135318	-0.320587	-0.486821	-1.68121	0.0351651	0.030798	-0.00305	0.397592	0.178566	-0.251102	-0.518972	0.031889	0.0409545	-0.00521385	-0.288415	-0.139359	0.0934917	-0.476429	-0.224767	-0.0122977	2.10067	1.74482	0.00588342	0.0429652	-0.605352	-0.211712	-0.16877	2.21567	1.53943	0.0355502	0.0102162
1.77	0.0410433	0.128812	0.106902	0.933991	1.01172	-0.337562	-0.0736157	-0.331106	-0.465371	-1.77721	0.0535206	0.030798	-0.00305	0.396909	0.1893	-0.231982	-0.596895	0.102085	0.0409545	-0.00521385	-0.296552	-0.142113	0.070552	-0.484098	-0.225208	-0.0275594	2.06693	1.74528	0.00588342	0.0429652	-0.567379	-0.222271	-0.157011	2.19634	1.54012	0.0355502	0.0102162
1.78	0.0403015	0.131417	0.113568	0.931297	1.00463	-0.337842	-0.00618767	-0.338541	-0.44406	-1.8633	0.0708378	0.030798	-0.00305	0.394366	0.197263	-0.213357	-0.673851	0.17655	0.0409545	-0.00521385	-0.303899	-0.142221	0.0457943	-0.489041	-0.226326	-0.0412677	2.03207	1.74585	0.00588342	0.0429652	-0.526438	-0.23309	-0.142801	2.17767	1.53772	0.0355502	0.0102162
1.79	0.038828	0.13149	0.119935	0.928366	0.998494	-0.337986	0.0661172	-0.342672	-0.423726	-1.93738	0.0875156	0.030798	-0.00305	0.387598	0.201611	-0.195557	-0.743441	0.250563	0.0409545	-0.00521385	-0.30994	-0.139306	0.0195966	-0.491511	-0.227998	-0.0528297	1.99692	1.74581	0.00588342	0.0429652	-0.483275	-0.243557	-0.126499	2.16115	1.5329	0.0355502	0.0102162
1.8	0.0366061	0.128612	0.12567	0.925341	0.993519	-0.338033	0.142125	-0.343327	-0.405161	-1.99751	0.10364	0.030798	-0.00305	0.374539	0.201541	-0.178705	-0.800294	0.319744	0.0409545	-0.00521385	-0.314043	-0.133023	-0.0073507	-0.49221	-0.230133	-0.0618541	1.96287	1.74437	0.00588342	0.0429652	-0.43893	-0.253057	-0.10862	2.14847	1.52698	0.0355502	0.0102162
1.81	0.0336082	0.122462	0.13034	0.922434	0.989868	-0.338007	0.220363	-0.340448	-0.38911	-2.04207	0.11898	0.030798	-0.00305	0.35368	0.196439	-0.162977	-0.840516	0.380222	0.0409545	-0.00521385	-0.315502	-0.123179	-0.0342392	-0.49211	-0.232724	-0.0680918	1.93164	1.74086	0.00588342	0.0429652	-0.394772	-0.260965	-0.0898943	2.1413	1.52172	0.0355502	0.0102162
1.82	0.02987	0.112897	0.133494	0.919894	0.98768	-0.337928	0.299066	-0.334096	-0.376273	-2.06988	0.133058	0.030798	-0.00305	0.324167	0.185984	-0.148766	-0.861868	0.428578	0.0409545	-0.00521385	-0.313746	-0.109745	-0.0601407	-0.492417	-0.235764	-0.0716231	1.9052	1.73494	0.00588342	0.0429652	-0.352264	-0.266765	-0.071046	2.14112	1.51878	0.0355502	0.0102162
1.83	0.0254591	0.100007	0.134745	0.917953	0.987029	-0.337807	0.376286	-0.324459	-0.367298	-2.0803	0.145275	0.030798	-0.00305	0.285815	0.170242	-0.136757	-0.863634	0.46168	0.0409545	-0.00521385	-0.308405	-0.0929278	-0.084321	-0.49421	-0.239265	-0.0726734	1.88527	1.72676	0.00588342	0.0429652	-0.312896	-0.270051	-0.0528114	2.1489	1.51938	0.0355502	0.0102162
1.84	0.0204756	0.0841031	0.133832	0.916797	0.987911	-0.337644	0.45001	-0.311815	-0.36273	-2.07321	0.155075	0.030798	-0.00305	0.239048	0.149678	-0.127913	-0.846392	0.476666	0.0409545	-0.00521385	-0.299394	-0.0731429	-0.106269	-0.498326	-0.2432	-0.0716556	1.87304	1.71694	0.00588342	0.0429652	-0.277954	-0.270589	-0.0357215	2.16493	1.524	0.0355502	0.0102162
